<?xml version="1.0" standalone="no"?>
<!DOCTYPE svg PUBLIC "-//W3C//DTD SVG 20010904//EN"
 "http://www.w3.org/TR/2001/REC-SVG-20010904/DTD/svg10.dtd">
<svg version="1.0" xmlns="http://www.w3.org/2000/svg"
 width="136.000000pt" height="149.000000pt" viewBox="0 0 136.000000 149.000000"
 preserveAspectRatio="xMidYMid meet">

<g transform="translate(0.000000,149.000000) scale(0.100000,-0.100000)"
fill="#ee1c25" stroke="none">
<path d="M60 927 l0 -564 310 -152 311 -153 302 148 c166 81 308 152 315 157
9 7 12 133 12 568 l0 559 -625 0 -625 0 0 -563z m480 468 c0 -8 9 -15 20 -15
24 0 27 -15 5 -24 -13 -4 -14 -10 -5 -26 12 -22 7 -25 -20 -10 -13 7 -21 7
-25 0 -10 -16 -25 -12 -18 5 3 9 -3 25 -12 35 -18 19 -17 20 8 20 17 0 27 5
27 15 0 8 5 15 10 15 6 0 10 -7 10 -15z m150 0 c0 -10 10 -15 27 -15 25 0 26
-1 8 -20 -9 -10 -15 -26 -12 -35 8 -18 -4 -20 -21 -3 -9 9 -15 9 -24 0 -18
-18 -27 -14 -21 8 4 13 -1 26 -13 35 -18 14 -17 14 9 15 17 0 27 5 27 15 0 8
5 15 10 15 6 0 10 -7 10 -15z m182 -15 c20 0 20 -1 4 -19 -9 -10 -14 -25 -10
-35 7 -17 -11 -23 -21 -6 -4 7 -13 6 -27 -1 -18 -9 -19 -8 -13 10 4 14 1 23
-9 27 -22 8 -20 24 3 24 10 0 22 8 26 18 6 16 7 16 16 0 6 -10 19 -18 31 -18z
m-532 -220 l0 -90 35 0 c26 0 35 -4 35 -17 0 -29 15 -2 55 100 35 89 41 98 63
95 20 -3 30 -19 67 -110 l43 -108 -28 0 c-20 0 -31 6 -35 20 -5 16 -15 20 -50
20 -34 0 -44 -4 -48 -20 -5 -18 -14 -20 -95 -20 l-91 0 -3 106 c-2 58 -1 108
1 110 2 2 15 4 28 4 22 0 23 -2 23 -90z m317 78 c6 -7 18 -37 28 -65 11 -29
21 -53 24 -53 4 0 17 28 31 63 21 53 29 62 53 65 15 2 27 0 27 -5 -1 -4 -20
-53 -43 -108 -37 -86 -46 -100 -66 -100 -20 0 -29 13 -62 88 -55 127 -55 127
-26 127 14 0 29 -6 34 -12z m223 -98 l0 -110 -25 0 -25 0 0 110 0 110 25 0 25
0 0 -110z m117 48 l38 -62 5 60 c5 55 7 59 30 59 25 0 25 0 28 -107 l3 -108
-30 0 c-26 0 -35 8 -68 62 l-38 62 -3 -62 c-3 -58 -4 -62 -27 -62 l-25 0 0
110 c0 110 0 110 24 110 20 0 33 -13 63 -62z m165 50 c-6 -7 -12 -26 -15 -43
l-4 -30 -2 31 c0 16 -6 35 -13 42 -9 9 -6 12 16 12 22 0 26 -3 18 -12z m46
-10 l11 -23 7 23 c3 12 10 22 14 22 11 0 18 -70 8 -76 -4 -3 -8 5 -8 18 l-1
23 -13 -24 -14 -24 -8 24 -8 24 -7 -25 c-6 -20 -7 -17 -8 18 -1 46 10 54 27
20z m-643 -248 c22 -8 24 -13 15 -29 -8 -16 -17 -19 -45 -14 -27 4 -35 2 -35
-10 0 -9 9 -18 19 -22 39 -12 71 -46 71 -75 0 -49 -44 -77 -105 -66 -44 9 -64
32 -44 51 12 12 20 13 47 3 25 -10 34 -10 44 1 14 14 8 20 -51 53 -24 13 -31
24 -31 48 0 57 52 84 115 60z m175 -15 c0 -22 -4 -25 -35 -25 -28 0 -35 -4
-35 -20 0 -16 7 -20 36 -20 31 0 35 -3 32 -22 -2 -18 -11 -24 -35 -26 -25 -2
-33 -8 -33 -23 0 -15 7 -19 35 -19 28 0 35 -4 35 -20 0 -18 -7 -20 -65 -20
l-65 0 0 103 c0 57 3 107 7 110 3 4 33 7 65 7 55 0 58 -1 58 -25z m140 22 c0
-2 20 -52 44 -110 l44 -107 -30 0 c-21 0 -31 6 -35 20 -4 16 -14 20 -48 20
-34 0 -44 -4 -48 -20 -3 -14 -14 -20 -31 -20 -14 0 -26 3 -26 6 0 12 72 189
82 202 9 10 48 18 48 9z m-622 -25 c2 -6 -9 -17 -25 -26 -46 -23 -85 -71 -104
-128 -13 -40 -19 -49 -25 -35 -17 46 25 132 89 178 41 30 58 32 65 11z m914
-15 c51 -39 88 -99 88 -144 0 -48 -17 -49 -24 -1 -5 32 -18 53 -54 88 -26 26
-56 51 -66 57 -18 10 -15 33 4 33 5 0 28 -15 52 -33z m-760 6 c22 -20 23 -42
0 -69 -23 -29 -102 -84 -119 -84 -18 0 -46 67 -40 97 2 13 0 23 -6 23 -16 0
-1 -89 18 -110 10 -11 16 -21 14 -23 -2 -1 -23 -16 -47 -32 -71 -47 -82 -94
-34 -142 53 -52 70 -113 19 -65 -27 26 -37 28 -37 8 0 -16 -18 -31 -27 -23 -2
3 1 21 7 39 11 29 10 38 -9 68 -29 48 -29 138 1 198 44 93 206 164 260 115z
m690 -13 c91 -47 131 -109 132 -207 1 -50 -3 -67 -23 -93 -19 -27 -21 -36 -12
-57 6 -13 11 -30 11 -38 0 -22 -21 -18 -27 5 -7 25 -8 25 -33 0 -21 -21 -40
-26 -40 -11 0 6 18 31 40 56 60 69 52 118 -27 166 -21 12 -40 24 -42 25 -2 2
6 15 18 30 14 18 21 40 20 68 l-2 41 -6 -40 c-8 -46 -27 -85 -42 -85 -18 0
-85 48 -112 80 -33 39 -34 54 -4 75 29 21 92 15 149 -15z m-502 -225 c42 -21
60 -53 60 -103 0 -37 -6 -50 -34 -78 -24 -24 -43 -34 -65 -34 -105 0 -158 123
-83 192 44 41 75 47 122 23z m230 0 c42 -21 60 -53 60 -103 0 -37 -6 -50 -34
-78 -24 -24 -43 -34 -65 -34 -105 0 -158 123 -83 192 44 41 75 47 122 23z
m-400 -15 c0 -16 -7 -20 -35 -20 -28 0 -35 -4 -35 -19 0 -15 8 -21 33 -23 24
-2 33 -8 35 -25 3 -20 -1 -23 -32 -23 -34 0 -35 -1 -38 -42 -3 -38 -6 -43 -28
-43 -25 0 -25 0 -28 108 l-3 107 66 0 c58 0 65 -2 65 -20z m622 -9 c28 -25 33
-36 33 -75 0 -38 -5 -51 -32 -78 -28 -28 -39 -32 -85 -33 l-53 0 -3 108 -3
107 56 0 c46 0 60 -4 87 -29z m-512 -277 c0 -8 9 -14 22 -14 19 0 20 -1 5 -18
-11 -12 -13 -22 -6 -35 11 -19 -1 -23 -19 -5 -9 9 -15 9 -24 0 -19 -19 -30
-14 -23 9 5 14 1 25 -12 34 -17 14 -17 14 5 15 15 0 26 7 29 20 6 22 23 18 23
-6z m182 -14 c22 -1 22 -1 5 -15 -13 -9 -17 -20 -12 -34 7 -23 -4 -28 -23 -9
-9 9 -15 9 -24 0 -18 -18 -27 -14 -21 9 4 15 0 27 -12 35 -18 13 -17 14 7 14
18 0 28 7 32 23 l7 22 9 -22 c6 -14 18 -23 32 -23z m150 0 c22 -1 22 -1 5 -15
-13 -9 -17 -20 -12 -35 6 -20 5 -21 -15 -10 -16 9 -25 8 -37 -1 -13 -11 -14
-10 -11 7 1 12 -3 28 -11 37 -12 15 -11 17 7 17 13 0 23 9 28 22 l7 23 8 -23
c5 -14 17 -22 31 -22z"/>
<path d="M517 1149 c-7 -27 -4 -32 17 -27 12 2 13 7 2 27 l-13 23 -6 -23z"/>
<path d="M847 889 c-7 -27 -4 -32 17 -27 12 2 13 7 2 27 l-13 23 -6 -23z"/>
<path d="M320 910 c0 -5 5 -10 10 -10 6 0 10 5 10 10 0 6 -4 10 -10 10 -5 0
-10 -4 -10 -10z"/>
<path d="M149 793 c-13 -16 -12 -17 4 -4 9 7 17 15 17 17 0 8 -8 3 -21 -13z"/>
<path d="M195 779 c-11 -20 -21 -29 -31 -25 -9 3 -12 1 -9 -4 12 -20 32 -9 48
25 21 43 14 47 -8 4z"/>
<path d="M1020 910 c0 -5 5 -10 10 -10 6 0 10 5 10 10 0 6 -4 10 -10 10 -5 0
-10 -4 -10 -10z"/>
<path d="M1150 791 c11 -22 24 -43 30 -46 16 -10 40 14 39 39 -1 19 -2 19 -8
-3 -10 -38 -27 -35 -47 8 -11 22 -22 41 -27 41 -4 0 2 -18 13 -39z"/>
<path d="M1170 816 c0 -2 7 -7 16 -10 8 -3 12 -2 9 4 -6 10 -25 14 -25 6z"/>
<path d="M520 660 c-42 -42 -10 -120 44 -106 64 16 52 126 -13 126 -6 0 -20
-9 -31 -20z"/>
<path d="M750 660 c-42 -42 -10 -120 44 -106 64 16 52 126 -13 126 -6 0 -20
-9 -31 -20z"/>
<path d="M970 615 c0 -69 8 -77 40 -45 34 34 22 88 -22 103 -16 6 -18 -1 -18
-58z"/>
</g>
</svg>
