<?xml version="1.0" standalone="no"?>
<!DOCTYPE svg PUBLIC "-//W3C//DTD SVG 20010904//EN"
 "http://www.w3.org/TR/2001/REC-SVG-20010904/DTD/svg10.dtd">
<svg version="1.0" xmlns="http://www.w3.org/2000/svg"
 width="192.000000pt" height="192.000000pt" viewBox="0 0 192.000000 192.000000"
 preserveAspectRatio="xMidYMid meet">

<g transform="translate(0.000000,192.000000) scale(0.100000,-0.100000)"
fill="#f15f2a" stroke="none">
<path d="M805 1880 c-3 -5 -24 -10 -45 -10 -21 0 -42 -4 -45 -10 -3 -5 -17
-10 -30 -10 -13 0 -27 -4 -30 -10 -3 -5 -15 -10 -25 -10 -23 0 -141 -62 -215
-113 -46 -31 -188 -177 -222 -227 -46 -68 -103 -179 -103 -200 0 -10 -4 -22
-10 -25 -5 -3 -10 -19 -10 -34 0 -15 -3 -31 -7 -35 -14 -14 -31 -139 -32 -228
-1 -87 14 -215 30 -253 4 -11 14 -38 21 -60 17 -54 71 -156 121 -229 36 -53
159 -186 172 -186 3 0 25 -15 50 -34 52 -40 190 -108 255 -126 25 -7 54 -16
65 -20 73 -30 398 -29 430 1 5 5 19 9 32 9 12 0 35 5 50 11 122 50 183 81 237
119 60 42 206 182 206 197 0 6 7 16 16 24 8 7 24 29 35 48 10 20 24 43 29 51
17 28 50 104 50 117 0 7 4 13 9 13 5 0 11 15 14 33 3 17 11 52 18 77 20 77 23
305 4 380 -9 36 -19 76 -22 90 -2 14 -9 36 -15 50 -6 14 -15 36 -21 50 -10 26
-16 38 -56 110 -24 45 -149 200 -160 200 -3 0 -31 23 -61 50 -30 27 -58 50
-61 50 -4 0 -42 20 -85 45 -44 25 -85 45 -92 45 -7 0 -32 9 -54 20 -23 11 -61
20 -84 20 -24 0 -46 5 -49 10 -4 6 -67 10 -155 10 -88 0 -151 -4 -155 -10z
m248 -253 c62 -81 138 -160 180 -185 15 -9 27 -20 27 -24 0 -4 6 -8 13 -8 8 0
22 -9 32 -20 10 -11 22 -20 27 -20 17 0 124 -85 188 -150 93 -93 120 -158 120
-288 0 -44 -4 -84 -10 -87 -5 -3 -10 -22 -10 -40 0 -40 -41 -154 -70 -195 -11
-15 -20 -31 -20 -35 0 -3 -6 -12 -12 -19 -7 -7 -25 -26 -39 -42 -29 -33 -48
-50 -169 -149 -47 -38 -92 -76 -100 -85 -28 -28 -115 -97 -150 -119 -76 -46
-190 -14 -190 53 0 21 5 26 25 26 14 0 25 -3 25 -8 0 -4 13 -13 29 -20 25 -11
34 -10 64 7 80 45 284 249 335 334 23 40 29 82 12 92 -5 3 -10 15 -10 25 0 37
-80 118 -145 149 -49 23 -68 25 -111 12 -270 -81 -345 -114 -412 -176 -43 -39
-43 -40 -38 -95 12 -123 12 -124 -6 -128 -24 -5 -66 64 -74 120 -18 128 106
269 320 368 37 16 71 30 76 30 6 0 19 5 30 10 11 5 29 14 40 20 11 6 31 10 44
10 14 0 28 5 31 10 3 6 15 10 25 10 20 0 74 27 121 61 36 25 44 62 22 97 -28
43 -119 152 -177 212 -96 98 -109 105 -141 70 -10 -11 -24 -20 -32 -20 -7 0
-13 -4 -13 -10 0 -5 -7 -10 -15 -10 -8 0 -15 -4 -15 -10 0 -5 -9 -10 -20 -10
-11 0 -20 -4 -20 -9 0 -5 -6 -11 -12 -13 -7 -2 -67 -32 -133 -68 -137 -75
-238 -162 -281 -243 -24 -46 -28 -64 -30 -156 -1 -75 -5 -106 -15 -112 -21
-13 -32 -6 -50 32 -55 116 -52 204 12 332 23 45 159 182 190 192 11 4 19 10
19 15 0 4 15 15 33 24 17 9 55 30 82 47 28 16 58 32 68 36 9 3 17 9 17 14 0 5
7 9 15 9 8 0 15 5 15 10 0 6 6 10 13 10 15 0 147 128 147 143 0 17 32 47 51
47 11 0 40 -30 72 -73z"/>
<path d="M1450 1091 c0 -30 23 -74 57 -109 6 -6 15 -21 18 -32 3 -11 11 -20
16 -20 26 0 -28 130 -72 175 -19 19 -19 19 -19 -14z"/>
<path d="M1325 924 c-23 -19 -27 -27 -15 -31 24 -10 120 -105 120 -119 0 -8 4
-14 8 -14 5 0 15 -18 22 -41 13 -39 14 -40 23 -17 9 24 -8 126 -27 163 -26 47
-61 85 -80 85 -12 0 -34 -12 -51 -26z"/>
</g>
</svg>
